# xmcd
#
# Track frame offsets:
#	150
#	11749
#	24080
#	33531
#	50942
#	64990
#	76463
#	94282
#	102885
#	112411
#	123585
#	139623
#	149832
#	159405
#	169734
#	183394
#	194984
#	201877
#	213215
#	224587
#	234977
#	242691
#	251291
#	255756
#	268211
#
# Disc length: 3703 seconds
# Revision: 0
# Processed by: cddbd v1.5.2PL0 Copyright (c) Steve Scherf et al.
# Submitted via: dBpowerAMP V12.0
#
DISCID=7e0e7519
DTITLE=Various Artist - Banjo Gathering
DYEAR=2007
DGENRE=Country
TTITLE0=Pete Sutherland - Cumberland Gap
TTITLE1=Dan Gellert - Sail Away Ladies
TTITLE2=Scott Ainslie - Hammons Piece
TTITLE3=John Herrmann - Old Man Can Your Dog Catch a Rabbitt?
TTITLE4=Cathy Fink - Billy Wilson
TTITLE5=Bob Thornburg - Liza Jane
TTITLE6=Bruce Molsky - Rolling Mills
TTITLE7=Mike Seeger - Sally Gooden
TTITLE8=Alice Gerrard - Fish and Line
TTITLE9=Paul Brown - Brushy Fork
TTITLE10=Rafe Stefanini - Reuben
TTITLE11=David Winston - Jack Wilson
TTITLE12=Steve Baughman - Bony Crossing the Alps
TTITLE13=Terri McMurray - John Henry
TTITLE14=Brad Leftwich - Shortening Bread
TTITLE15=Tom Sauber - King's March
TTITLE16=Gordy Hinners - Arkansas Traveller
TTITLE17=Joe Newberry - Last Chance
TTITLE18=John McCutcheon - Shady Grove
TTITLE19=John Cohen - Twin Sisters
TTITLE20=Phil Jamison - Mrs. McLeod's
TTITLE21=Gail Gillespie - Will There Be Any Stars in my Crown?
TTITLE22=Brent Riggs - Hello Coon
TTITLE23=Bruce Molsky - A Fiddle or a Dram
TTITLE24=Dan Gellert - Gray Eagle
EXTD=
EXTT0=
EXTT1=
EXTT2=
EXTT3=
EXTT4=
EXTT5=
EXTT6=
EXTT7=
EXTT8=
EXTT9=
EXTT10=
EXTT11=
EXTT12=
EXTT13=
EXTT14=
EXTT15=
EXTT16=
EXTT17=
EXTT18=
EXTT19=
EXTT20=
EXTT21=
EXTT22=
EXTT23=
EXTT24=
PLAYORDER=
